<?xml version="1.0" encoding="UTF-8"?>
<svg xmlns="http://www.w3.org/2000/svg" viewBox="0 0 24 24" width="512" height="512" aria-labelledby="title desc" role="img">
  <title>ResumeX Icon</title>
  <desc>Gradient circle with book glyph used in site navbar</desc>
  <defs>
    <linearGradient id="g" x1="0" y1="0" x2="1" y2="1">
      <stop offset="0%" stop-color="#6366F1"/>
      <stop offset="100%" stop-color="#22D3EE"/>
    </linearGradient>
  </defs>
  <rect x="0" y="0" width="24" height="24" rx="12" fill="url(#g)"/>
  <!-- Book glyph from NavBar (white) -->
  <path fill="#FFFFFF" d="M5.625 1.5c-1.036 0-1.875.84-1.875 1.875v17.25c0 1.035.84 1.875 1.875 1.875h12.75c1.035 0 1.875-.84 1.875-1.875V12.75A3.75 3.75 0 0016.5 9h-1.875a1.875 1.875 0 01-1.875-1.875V5.25A3.75 3.75 0 009 1.5H5.625z"/>
  <path fill="#FFFFFF" d="M12.971 1.816A5.23 5.23 0 0114.25 5.25v1.875c0 .207.168.375.375.375H16.5a5.23 5.23 0 013.434 1.279 9.768 9.768 0 00-6.963-6.963z"/>
</svg>
